# xmcd
#
# Track frame offsets:
#	182
#	18697
#	29127
#	41445
#	56307
#	71085
#	95107
#	112570
#	131567
#	143827
#	169320
#	184532
#	199155
#	232627
#	249620
#
# Disc length: 3563 seconds
#
# Revision: 2
# Processed by: cddbd v1.4PL0 Copyright (c) Steve Scherf et al.
# Submitted via: MusicWizard 6.0.1
#
DISCID=cd0de90f
DTITLE=Various Artist - Done Still Got The Blues
DYEAR=1994
DGENRE=Blues
TTITLE0=Byther Smith - Come On In This House
TTITLE1=The Paul DeLay Band - Harpoon Man
TTITLE2=Buddy Guy - You Sure Can't Do
TTITLE3=Tommy Tucker - Drunk
TTITLE4=Billy Arnold With Tony McPhee - Don't Stay Out All Night
TTITLE5=Jimmy Johnson - When My First Wife Quit Me
TTITLE6=Colin "Barrelhouse" Banagan - Drivin' The Boogie
TTITLE7=Carey Bell And Willie Williams - You Went Away Baby
TTITLE8=Muddy Waters - Trouble No More
TTITLE9=The Mighty Houserckers Featuring Les Wilson - Play Theblues For You
TTITLE10=King Curtis - Soul Groove (Part 2)
TTITLE11=King Biscuit Boy With The Ronnie Hawkins Band - Done Everything I Can
TTITLE12=U.P. Wilson - Hold On Baby
TTITLE13=John Lee Hooker - Goin' Mad Blues
TTITLE14=Earl Hooker - Bertha
EXTD=
EXTT0=
EXTT1=
EXTT2=
EXTT3=
EXTT4=
EXTT5=
EXTT6=
EXTT7=
EXTT8=
EXTT9=
EXTT10=
EXTT11=
EXTT12=
EXTT13=
EXTT14=
PLAYORDER=
